inDegrees=no
num_controls=7
num_derivatives=13
num_iterations=90
num_multipliers=7
num_parameters=0
num_slacks=7
num_states=26
objective=5.979326
objective_accelerations=0.370279
objective_balance=0.071423
objective_effort=0.418827
objective_height=5.096203
objective_ligament=0.022594
solver_duration=799.185112
status=Solve_Succeeded
success=true
DataType=double
version=3
OpenSimVersion=4.4-2022-07-23-0e9fedc
endheader
time	/jointset/ground_pelvis/pelvis_tilt/value	/jointset/ground_pelvis/pelvis_tx/value	/jointset/ground_pelvis/pelvis_ty/value	/jointset/hip_r/hip_flexion_r/value	/jointset/hip_r/hip_adduction_r/value	/jointset/hip_r/hip_rotation_r/value	/jointset/back/lumbar_extension/value	/jointset/patellofemoral_r/patellar_flexion_r/value	/jointset/knee_r/knee_flexion_r/value	/jointset/knee_r/knee_adduction_r/value	/jointset/knee_r/knee_rotation_r/value	/jointset/ankle_r/ankle_angle_r/value	/jointset/subtalar_r/subtalar_angle_r/value	/jointset/ground_pelvis/pelvis_tilt/speed	/jointset/ground_pelvis/pelvis_tx/speed	/jointset/ground_pelvis/pelvis_ty/speed	/jointset/hip_r/hip_flexion_r/speed	/jointset/hip_r/hip_adduction_r/speed	/jointset/hip_r/hip_rotation_r/speed	/jointset/back/lumbar_extension/speed	/jointset/patellofemoral_r/patellar_flexion_r/speed	/jointset/knee_r/knee_flexion_r/speed	/jointset/knee_r/knee_adduction_r/speed	/jointset/knee_r/knee_rotation_r/speed	/jointset/ankle_r/ankle_angle_r/speed	/jointset/subtalar_r/subtalar_angle_r/speed	/forceset/tau_hip_flexion_r	/forceset/tau_hip_adduction_r	/forceset/tau_hip_rotation_r	/forceset/tau_knee_flexion_r	/forceset/tau_ankle_angle_r	/forceset/tau_subtalar_angle_r	/forceset/tau_lumbar_extension	lambda_cid13_p0	lambda_cid14_p0	lambda_cid14_p1	lambda_cid14_p2	lambda_cid14_p3	lambda_cid14_p4	lambda_cid14_p5	/jointset/ground_pelvis/pelvis_tilt/accel	/jointset/ground_pelvis/pelvis_tx/accel	/jointset/ground_pelvis/pelvis_ty/accel	/jointset/hip_r/hip_flexion_r/accel	/jointset/hip_r/hip_adduction_r/accel	/jointset/hip_r/hip_rotation_r/accel	/jointset/back/lumbar_extension/accel	/jointset/patellofemoral_r/patellar_flexion_r/accel	/jointset/knee_r/knee_flexion_r/accel	/jointset/knee_r/knee_adduction_r/accel	/jointset/knee_r/knee_rotation_r/accel	/jointset/ankle_r/ankle_angle_r/accel	/jointset/subtalar_r/subtalar_angle_r/accel	gamma_cid13_p0	gamma_cid14_p0	gamma_cid14_p1	gamma_cid14_p2	gamma_cid14_p3	gamma_cid14_p4	gamma_cid14_p5
1.5	-0.1012396433878266	0.07567635471337944	0.8774389889410946	0.6235123545825711	-0.2305955866597957	-0.1444906179188705	-0.2696923115143907	0.6181473389036529	0.6181473389035924	0.05443724109140635	0.1745267334256002	0.2638659948563443	0.05627738968600332	0.2155883899886741	0.1020270318495001	0.2962466429195128	-1.351790101224015	0.01863638625548153	-0.2845533617938853	0.7063334399622179	-1.668769133906462	-1.668769133906436	0.2600403076741133	8.419157715970467e-05	-0.6205416617309689	-0.1516140045542947	-0.05965750073374019	-0.008832115533428848	0.006343214558243406	-0.3020353248006486	0.02340049129093511	-0.01274881102654403	0.1168422195873881	-35.70997270991013	-34.28325626039339	-7.374112928949282	-3.122337094614349	8.47018320367024	-663.5608624234678	53.46393335167873	0.01977932747747145	0.135692476331813	-0.4205378023074991	-0.5422274457270959	0.02077562235390634	-0.555742870004413	1.009329644575717	-0.959662233014926	-0.9596622330149366	0.3004520066230255	-0.009688385563536708	-0.5438846021475349	-0.004097056118405135	1.31892576180249e-07	1.201766457517339e-07	-1.005809150944967e-06	1.061848336559401e-06	4.309890171956672e-08	1.493169131720234e-07	-1.106578922081583e-06
1.51	-0.09908316343955631	0.07670323034082463	0.880379761847923	0.6099692568688452	-0.2304089202362825	-0.1473635843728635	-0.2625794869644613	0.6014141074584451	0.6014141074584175	0.05705413481592994	0.174527846743199	0.2576340256164455	0.05476023359328058	0.2156790267644238	0.1033274853701043	0.2918462806106544	-1.356632195217643	0.01869750410049896	-0.2900083230345479	0.7161156138627868	-1.677626525836013	-1.677626525835969	0.2633283635532616	0.0001277362808917643	-0.6257623830579	-0.1517911979171	-0.05423032783053255	-0.01073930727552875	0.005831117571940939	-0.2993849012452383	0.02795741303911844	-0.01385685937970663	0.1117927519423161	-36.50953428822525	-32.73272022247407	-7.492612096678642	-3.207661131252677	7.963033865316237	-660.7682735686365	53.46933785902397	-0.0005683366161916694	0.1241430367220181	-0.4590047707564462	-0.4255998588329333	-0.001059706152952628	-0.5354295040826552	0.9452828390396549	-0.8112123464677111	-0.8112123464649609	0.3413677623572123	0.009943062716630775	-0.4976699564866123	-0.02068773873865156	1.407673756060883e-07	1.191112811786247e-07	-1.122698000509039e-06	1.067293888169075e-06	5.586284103737737e-08	1.476219057522383e-07	-1.17500794791182e-06
1.52	-0.0969266319613826	0.07774249475283505	0.8832746872665462	0.5963836583186422	-0.2302216105486761	-0.1502901117898486	-0.2553723163602805	0.5845998151592708	0.5845998151592313	0.05970358617606449	0.1745291089406501	0.2513525483515719	0.053242074114454	0.2155986959705805	0.1045047887625482	0.2870771452784323	-1.360290268517375	0.01876503907635035	-0.2952655543946204	0.7252026508130516	-1.68498130470727	-1.684981304707207	0.2665518347842546	0.0001139675596317376	-0.6304432667256621	-0.1518146817749837	-0.04880315492735566	-0.01264649901755291	0.00531902058500444	-0.2967344776898134	0.0325143347873297	-0.01496490773274857	0.1067432842972011	-37.27385073141138	-31.19150618025521	-7.608214063855606	-3.29862151651011	7.458630245338053	-658.1293472635473	53.54729082085095	-0.01441418644103654	0.1110624506996173	-0.4942924069802252	-0.3054233069475996	0.02205904852075472	-0.5161968938863536	0.8703022545149445	-0.659139621356174	-0.6591396213561499	0.2875350769919674	-0.02115107056198389	-0.4359170703139386	0.02664484486586461	1.495992066429341e-07	1.175540142061606e-07	-1.239432959016116e-06	1.069208932578028e-06	6.876206482728844e-08	1.451225803451887e-07	-1.239930568498794e-06
1.53	-0.09477179563168377	0.07879291371441113	0.8861201409625999	0.5827674003020598	-0.2300336169804522	-0.1532685328606494	-0.2480777265178741	0.5677194946873804	0.5677194946873838	0.06238483845509218	0.174530227079999	0.2450269820611145	0.05172442704555953	0.2153384750022143	0.1055579291575881	0.2819588224099279	-1.36276462464923	0.01883535740373608	-0.3003893635113112	0.7335987911818089	-1.690831968062011	-1.690831968061997	0.2696832013190323	0.0001024773735518042	-0.6345771980724926	-0.1516880690130429	-0.04332733869141069	-0.01468525831430945	0.00479729679869657	-0.2942420161003297	0.03733089068915198	-0.0162178254611634	0.1016922521548399	-37.9987791771803	-29.58350826412007	-7.782162086123426	-3.372143404584926	6.91225376161535	-655.6528314804896	53.56266515005116	-0.03632870648524536	0.09929643172995209	-0.5287899605114971	-0.1889222958576148	-0.000187072692132036	-0.5058635377239469	0.8067909554663231	-0.5104390694182421	-0.5104390694255739	0.3234889429333865	0.007952112252960039	-0.3881816919279353	0.009571844307110772	1.583853837664743e-07	1.15474100934382e-07	-1.356004408275134e-06	1.067372813086215e-06	8.180502836880618e-08	1.417686670766706e-07	-1.301127633514802e-06
1.54	-0.09262046204256309	0.0798532353995022	0.8889127738832228	0.5691323026182344	-0.2298448612884667	-0.1562972701460465	-0.240702671066301	0.5507881857065936	0.5507881857065965	0.06509691469973153	0.1745310503383749	0.2386628663521764	0.05020882657477385	0.2148981478558297	0.1064853334655495	0.2765129901922446	-1.364058201963218	0.01891746382954897	-0.3053287973145426	0.7412957726469822	-1.695179006492165	-1.6951790064922	0.2727166279023177	5.499138283416834e-05	-0.6381531504217401	-0.1514053621531459	-0.03785152245555546	-0.01672401761108628	0.004275573012058596	-0.2917495545108615	0.04214744659096479	-0.01747074318960116	0.0966412200124102	-38.68026343343539	-27.98540976537837	-7.952929485930345	-3.451785999328611	6.369222319443878	-653.3413203990692	53.6536160396341	-0.0504354220446579	0.08591523328375855	-0.5597942768160089	-0.06926754337439346	0.02441666820621438	-0.4793218311944481	0.7304704737981939	-0.3584146364388316	-0.3584146364388351	0.2679470866934873	-0.02835023148957799	-0.3243212707975621	0.05786366445706591	1.673219009535734e-07	1.130630564164065e-07	-1.474812502405455e-06	1.062456357023359e-06	9.497295879789374e-08	1.386013830452485e-07	-1.359353871637335e-06
1.55	-0.09047447806780494	0.08092219894677948	0.8916493746783527	0.5554901951198676	-0.2296552465428268	-0.1593748024519981	-0.2332541209937601	0.5338209457978629	0.5338209457979243	0.06783872679818295	0.1745315229053471	0.2322658021753008	0.04869681699811287	0.2142648757516611	0.1072857647693956	0.2707590004671822	-1.364163056310607	0.0190075608925231	-0.3101485960097745	0.7482982322873682	-1.698015678641046	-1.698015678641078	0.2756265329087968	3.598346523066921e-05	-0.6411636559185522	-0.1509700722691222	-0.03231273962389353	-0.01893793458562825	0.003733410541231906	-0.2894325710821701	0.04725061054493868	-0.01885524127245185	0.0915791573939191	-39.31432080161908	-26.31075249797799	-8.172461643777902	-3.517914496271284	5.777737571776297	-651.187646228881	53.70409103407373	-0.0748276832835003	0.07388853150952601	-0.5903997735305202	0.04895384525242144	0.001627267512323485	-0.4787229793072755	0.6677322734099089	-0.2083353115236269	-0.2083353115231186	0.2994525859454031	0.0109698415214416	-0.274975137868568	0.04019615185544623	1.764316360399902e-07	1.102704911147694e-07	-1.596197600409232e-06	1.053990817519953e-06	1.082848728148334e-07	1.356491283522195e-07	-1.414157200513036e-06
1.56	-0.08833583772982935	0.08199852309760997	0.8943269958855957	0.5418530487231542	-0.2294646666181255	-0.1624996155630248	-0.2257390266119654	0.5168329308062162	0.5168329308062597	0.07060902602241845	0.1745317345756954	0.2258415209537079	0.0471899272205879	0.2134294205002865	0.1079574541761986	0.2647170726148405	-1.36306598163106	0.01911049964228748	-0.3147849583297907	0.7546046344978065	-1.699334023086367	-1.699334023086396	0.2784140530480865	2.812084323764266e-06	-0.6435965593651892	-0.1503814023258824	-0.02677395679227055	-0.02115185156021056	0.003191248069730866	-0.2871155876534678	0.05235377449889801	-0.02023973935534595	0.08651709477541217	-39.89742679537044	-24.64630342546323	-8.388640467028974	-3.590450226154429	5.189529555570569	-649.2059830480398	53.83187081118622	-0.09087205148578888	0.06016685387499447	-0.6173819022718361	0.1711182620126041	0.02698500556432076	-0.4426345561512265	0.5912589878087009	-0.05474909572690601	-0.05474909572690701	0.243470113255579	-0.03118292415037565	-0.2088008607627373	0.0885396763002823	1.859651405056749e-07	1.106630883203988e-07	-1.715797959753194e-06	1.058198004283518e-06	1.184156330295571e-07	1.45411414830537e-07	-1.473274038171874e-06
1.57	-0.08620643402510025	0.08308091290605565	0.8969428488887369	0.5282326796558345	-0.2292730369706782	-0.16567002866724	-0.2181645466617809	0.4998392704705394	0.4998392704705507	0.07340662697256656	0.1745317161947797	0.2193957844484154	0.04568963373570324	0.2124172544298525	0.1084976307162244	0.2584114310710479	-1.360802497409436	0.01921631810416085	-0.3192580507913215	0.7601701692106718	-1.699135694331827	-1.699135694331836	0.2810874489317907	-1.343699363132037e-05	-0.6454495924944796	-0.1496524945555275	-0.02117878453615699	-0.02349415036592755	0.002620328949462389	-0.2849537858069384	0.05770363684707934	-0.02179044136126013	0.08144045635103034	-40.42926052673561	-22.91924757423014	-8.672633965928549	-3.644641444085741	4.570748952201604	-647.3713011058596	53.8782116281142	-0.1114886030633255	0.04753715683282814	-0.6434326541309408	0.2847754818775156	0.002498378244011838	-0.443461572723914	0.5210227640900451	0.09643595431211754	0.09643595431499831	0.2762694105489147	0.01229938887600604	-0.1583411507070354	0.06861606192690894	1.960283566954443e-07	1.150371386601114e-07	-1.833167395772387e-06	1.078246098880797e-06	1.245699509915106e-07	1.710668777730375e-07	-1.537782761809633e-06
1.58	-0.08408817192472805	0.08416802330045479	0.8994943900017001	0.5146411078266552	-0.2290803255162668	-0.1688839356923821	-0.2105380469542558	0.4828554558410494	0.4828554558410431	0.07623036089846186	0.1745313643808305	0.2129345602894905	0.04419733927542673	0.2112010996297901	0.1089015713668902	0.2518546945792586	-1.357306534002203	0.01932686103584059	-0.3234837425156559	0.7650085859661281	-1.697364881846586	-1.697364881846577	0.2836406482003363	-6.387453182367045e-05	-0.6466940900915664	-0.1487815974042195	-0.01558361228005064	-0.02583644917163449	0.002049409829329089	-0.2827919839604232	0.06305349919526018	-0.0233411433671631	0.07636381792664308	-40.90937116610464	-21.19959134001043	-8.952531063150801	-3.705645469553525	3.948340771423375	-645.6682073777764	54.00032560028348	-0.1316697974113697	0.03291967600287229	-0.6676008918711913	0.4176140991343174	0.0279298995256102	-0.3931544087118992	0.4458353963269197	0.2597476504129808	0.2597476504129917	0.2194307902238175	-0.03802061619791455	-0.08709375432219622	0.1169375524908688	2.067203172339934e-07	1.184139724545821e-07	-1.961640891895317e-06	1.092578892193616e-06	1.321928023140228e-07	1.966005120519335e-07	-1.602376255995034e-06
1.59	-0.08198296980893625	0.08525849243506642	0.9019792085754742	0.5010904243183654	-0.2288865229726534	-0.1721392358884031	-0.2028670654863146	0.4658971149299627	0.4658971149299537	0.07907898309025528	0.1745306987268746	0.2064639030671744	0.0427144161279164	0.209803174586564	0.1091688266046887	0.2450737453101443	-1.352620696527387	0.01943302249219195	-0.3275373871920151	0.7690555110546858	-1.694035183833158	-1.69403518383315	0.2860622072358254	-6.919156178468542e-05	-0.6473324135264148	-0.1477802900896309	-0.009788211998689815	-0.02849036405236779	0.001423611562218265	-0.2810861255032667	0.06897711936572204	-0.02502256670793294	0.07116981949006404	-41.33737758645155	-19.31481757567867	-9.263121363036063	-3.758520826936748	3.225697990695747	-644.1857712552547	54.14230421417279	-0.1492675767685863	0.02014361255780045	-0.688585756775131	0.5255001263642798	0.001813201615720704	-0.4053739190712524	0.3642915803452652	0.4097533282532066	0.4097533282531036	0.2500378275805749	0.01841773829454651	-0.03641308977939803	0.09492419601813626	2.182655736744577e-07	1.204374409376533e-07	-2.105184183873319e-06	1.099155205191812e-06	1.418086631972932e-07	2.219688074302233e-07	-1.667084795923665e-06
